<?xml version="1.0" encoding="UTF-8"?>
<svg width="396px" height="288px" viewBox="0 0 396 288" version="1.1" xmlns="http://www.w3.org/2000/svg" xmlns:xlink="http://www.w3.org/1999/xlink">
    <!-- Generator: Sketch 50.2 (55047) - http://www.bohemiancoding.com/sketch -->
    <title>14206</title>
    <desc>Created with Sketch.</desc>
    <defs>
        <polygon id="path-1" points="0 0 396 0 396 287.94 0 287.94"></polygon>
    </defs>
    <g id="14206" stroke="none" stroke-width="1" fill="none" fill-rule="evenodd">
        <mask id="mask-2" fill="white">
            <use xlink:href="#path-1"></use>
        </mask>
        <g id="Clip-2"></g>
        <polygon id="Fill-1" fill="#FAF9F7" mask="url(#mask-2)" points="0 287.94 396 287.94 396 0 0 0"></polygon>
        <path d="M475.064,305.646 C459.229,296.985 439.858,288.131 416.256,288.131 C392.654,288.131 373.284,296.985 357.448,305.646 L356.729,304.33 C372.73,295.578 392.316,286.631 416.256,286.631 C440.196,286.631 459.782,295.578 475.784,304.33 L475.064,305.646" id="Fill-3" fill="#D0CFCA" mask="url(#mask-2)"></path>
        <path d="M168.675,305.646 C152.839,296.985 133.469,288.131 109.867,288.131 C86.264,288.131 66.894,296.985 51.059,305.646 L50.339,304.33 C66.34,295.578 85.926,286.631 109.867,286.631 C133.807,286.631 153.393,295.578 169.395,304.33 L168.675,305.646" id="Fill-4" fill="#D0CFCA" mask="url(#mask-2)"></path>
        <path d="M492.471,305.634 C469.606,292.082 445.963,278.068 416.256,278.068 C386.549,278.068 362.906,292.082 340.042,305.634 L339.277,304.343 C362.315,290.688 386.138,276.568 416.256,276.568 C446.375,276.568 470.197,290.688 493.236,304.343 L492.471,305.634" id="Fill-5" fill="#D0CFCA" mask="url(#mask-2)"></path>
        <path d="M186.082,305.634 C163.213,292.08 139.572,278.068 109.867,278.068 C80.16,278.068 56.518,292.081 33.654,305.632 L32.889,304.342 C55.927,290.688 79.749,276.568 109.867,276.568 C139.983,276.568 163.804,290.687 186.84,304.34 L186.082,305.634" id="Fill-6" fill="#D0CFCA" mask="url(#mask-2)"></path>
        <path d="M509.924,305.646 C504.037,302.427 498.159,298.942 492.475,295.573 C469.609,282.021 445.964,268.006 416.256,268.006 C386.549,268.006 362.906,282.02 340.041,295.572 C334.356,298.941 328.478,302.426 322.59,305.646 L321.871,304.33 C327.735,301.122 333.602,297.645 339.276,294.281 C362.315,280.626 386.138,266.506 416.256,266.506 C446.375,266.506 470.2,280.627 493.239,294.282 C498.913,297.646 504.78,301.123 510.644,304.33 L509.924,305.646" id="Fill-7" fill="#D0CFCA" mask="url(#mask-2)"></path>
        <path d="M203.534,305.646 C197.646,302.426 191.766,298.941 186.081,295.571 C163.216,282.02 139.573,268.006 109.867,268.006 C80.16,268.006 56.516,282.02 33.651,295.571 C27.966,298.941 22.086,302.426 16.199,305.646 L15.479,304.33 C21.344,301.122 27.212,297.645 32.887,294.281 C55.925,280.626 79.749,266.506 109.867,266.506 C139.984,266.506 163.807,280.626 186.845,294.28 C192.52,297.645 198.388,301.122 204.253,304.33 L203.534,305.646" id="Fill-8" fill="#D0CFCA" mask="url(#mask-2)"></path>
        <path d="M531.145,305.687 C517.56,300.379 504.808,292.821 492.476,285.512 C469.61,271.959 445.966,257.945 416.256,257.945 C386.549,257.945 362.906,271.958 340.041,285.51 C327.708,292.82 314.954,300.379 301.366,305.687 L300.82,304.29 C314.294,299.026 326.994,291.499 339.276,284.22 C362.315,270.564 386.138,256.445 416.256,256.445 C446.377,256.445 470.201,270.565 493.24,284.222 C505.521,291.5 518.219,299.026 531.691,304.29 L531.145,305.687" id="Fill-9" fill="#D0CFCA" mask="url(#mask-2)"></path>
        <path d="M224.756,305.687 C211.169,300.379 198.416,292.82 186.082,285.511 C163.217,271.959 139.574,257.945 109.867,257.945 C80.16,257.945 56.518,271.958 33.653,285.51 C21.4,292.771 8.73,300.281 -4.756,305.582 L-5.305,304.186 C8.069,298.93 20.686,291.451 32.888,284.219 C55.926,270.564 79.749,256.445 109.867,256.445 C139.985,256.445 163.808,270.565 186.847,284.22 C199.129,291.499 211.829,299.026 225.302,304.29 L224.756,305.687" id="Fill-10" fill="#D0CFCA" mask="url(#mask-2)"></path>
        <path d="M263.062,303.223 C232.943,303.223 209.12,289.103 186.082,275.448 C163.217,261.896 139.574,247.883 109.867,247.883 C80.16,247.883 56.517,261.896 33.652,275.447 C21.399,282.71 8.729,290.22 -4.756,295.521 L-5.305,294.124 C8.068,288.867 20.686,281.39 32.887,274.157 C55.926,260.503 79.749,246.383 109.867,246.383 C139.985,246.383 163.808,260.503 186.847,274.157 C209.711,287.709 233.354,301.723 263.062,301.723 C292.769,301.723 316.412,287.709 339.276,274.157 C362.314,260.503 386.137,246.383 416.256,246.383 L416.256,247.883 C386.548,247.883 362.905,261.896 340.041,275.448 C317.003,289.103 293.18,303.223 263.062,303.223" id="Fill-11" fill="#D0CFCA" mask="url(#mask-2)"></path>
        <path d="M263.062,293.161 C232.943,293.161 209.12,279.041 186.082,265.386 C163.217,251.834 139.574,237.82 109.867,237.82 C80.16,237.82 56.517,251.834 33.653,265.386 C21.4,272.648 8.729,280.158 -4.756,285.459 L-5.305,284.063 C8.068,278.806 20.686,271.327 32.888,264.096 C55.926,250.44 79.749,236.32 109.867,236.32 C139.985,236.32 163.808,250.44 186.847,264.096 C209.711,277.647 233.354,291.661 263.062,291.661 C292.769,291.661 316.412,277.647 339.276,264.096 C362.314,250.44 386.137,236.32 416.256,236.32 L416.256,237.82 C386.548,237.82 362.906,251.834 340.041,265.386 C317.003,279.041 293.18,293.161 263.062,293.161" id="Fill-12" fill="#D0CFCA" mask="url(#mask-2)"></path>
        <path d="M263.062,283.1 C232.943,283.1 209.12,268.979 186.082,255.325 C163.217,241.773 139.574,227.76 109.867,227.76 C80.16,227.76 56.517,241.772 33.653,255.324 C21.4,262.586 8.73,270.096 -4.756,275.396 L-5.305,274 C8.069,268.744 20.686,261.266 32.888,254.033 C55.926,240.379 79.749,226.26 109.867,226.26 C139.985,226.26 163.808,240.38 186.847,254.034 C209.711,267.586 233.354,281.6 263.062,281.6 C292.769,281.6 316.412,267.586 339.276,254.034 C362.314,240.38 386.137,226.26 416.256,226.26 L416.256,227.76 C386.548,227.76 362.905,241.773 340.041,255.325 C317.003,268.979 293.18,283.1 263.062,283.1" id="Fill-13" fill="#D0CFCA" mask="url(#mask-2)"></path>
        <path d="M263.062,273.037 C232.943,273.037 209.12,258.917 186.082,245.263 C163.217,231.711 139.574,217.697 109.867,217.697 C80.16,217.697 56.517,231.71 33.652,245.262 C21.399,252.524 8.729,260.034 -4.756,265.335 L-5.305,263.938 C8.068,258.682 20.686,251.204 32.887,243.972 C55.926,230.317 79.749,216.197 109.867,216.197 C139.985,216.197 163.808,230.317 186.847,243.972 C209.711,257.523 233.354,271.537 263.062,271.537 C292.769,271.537 316.412,257.523 339.276,243.972 C362.314,230.317 386.137,216.197 416.256,216.197 L416.256,217.697 C386.548,217.697 362.905,231.711 340.041,245.263 C317.003,258.917 293.18,273.037 263.062,273.037" id="Fill-14" fill="#D0CFCA" mask="url(#mask-2)"></path>
        <path d="M263.062,262.976 C232.943,262.976 209.12,248.855 186.082,235.201 C163.217,221.649 139.574,207.636 109.867,207.636 C80.16,207.636 56.518,221.649 33.653,235.2 C21.4,242.463 8.73,249.973 -4.756,255.273 L-5.305,253.877 C8.069,248.621 20.687,241.143 32.889,233.91 C55.927,220.256 79.749,206.136 109.867,206.136 C139.985,206.136 163.808,220.256 186.847,233.911 C209.711,247.463 233.354,261.476 263.062,261.476 C292.769,261.476 316.412,247.463 339.276,233.911 C362.314,220.256 386.137,206.136 416.256,206.136 L416.256,207.636 C386.548,207.636 362.905,221.649 340.041,235.201 C317.003,248.855 293.18,262.976 263.062,262.976" id="Fill-15" fill="#D0CFCA" mask="url(#mask-2)"></path>
        <path d="M263.062,252.914 C232.943,252.914 209.12,238.794 186.082,225.14 C163.217,211.588 139.574,197.574 109.867,197.574 C80.16,197.574 56.517,211.587 33.652,225.139 C21.399,232.401 8.729,239.911 -4.756,245.212 L-5.305,243.815 C8.068,238.559 20.686,231.081 32.887,223.849 C55.926,210.194 79.749,196.074 109.867,196.074 C139.985,196.074 163.808,210.194 186.847,223.849 C209.711,237.4 233.354,251.414 263.062,251.414 C292.769,251.414 316.412,237.4 339.276,223.849 C362.314,210.194 386.137,196.074 416.256,196.074 L416.256,197.574 C386.548,197.574 362.905,211.588 340.041,225.14 C317.003,238.794 293.18,252.914 263.062,252.914" id="Fill-16" fill="#D0CFCA" mask="url(#mask-2)"></path>
        <path d="M263.062,242.852 C232.943,242.852 209.12,228.731 186.082,215.077 C163.217,201.525 139.574,187.512 109.867,187.512 C80.16,187.512 56.518,201.525 33.653,215.076 C21.4,222.339 8.73,229.849 -4.756,235.149 L-5.305,233.753 C8.069,228.497 20.687,221.019 32.889,213.786 C55.927,200.131 79.749,186.012 109.867,186.012 C139.985,186.012 163.808,200.132 186.847,213.787 C209.711,227.339 233.354,241.352 263.062,241.352 C292.769,241.352 316.412,227.339 339.276,213.787 C362.314,200.132 386.137,186.012 416.256,186.012 L416.256,187.512 C386.548,187.512 362.905,201.525 340.041,215.077 C317.003,228.731 293.18,242.852 263.062,242.852" id="Fill-17" fill="#D0CFCA" mask="url(#mask-2)"></path>
        <path d="M263.062,232.79 C232.943,232.79 209.12,218.67 186.082,205.016 C163.217,191.464 139.574,177.451 109.867,177.451 C80.16,177.451 56.517,191.463 33.653,205.015 C21.4,212.277 8.729,219.787 -4.756,225.088 L-5.305,223.691 C8.068,218.435 20.686,210.957 32.888,203.725 C55.926,190.07 79.749,175.951 109.867,175.951 C139.985,175.951 163.808,190.07 186.847,203.725 C209.711,217.277 233.354,231.29 263.062,231.29 C292.769,231.29 316.412,217.277 339.276,203.725 C362.314,190.07 386.137,175.951 416.256,175.951 L416.256,177.451 C386.548,177.451 362.905,191.464 340.041,205.016 C317.003,218.67 293.18,232.79 263.062,232.79" id="Fill-18" fill="#D0CFCA" mask="url(#mask-2)"></path>
        <path d="M263.062,222.729 C232.943,222.729 209.12,208.609 186.082,194.954 C163.217,181.402 139.574,167.389 109.867,167.389 C80.16,167.389 56.517,181.402 33.653,194.954 C21.4,202.216 8.729,209.726 -4.756,215.026 L-5.305,213.63 C8.068,208.374 20.686,200.895 32.888,193.663 C55.926,180.009 79.749,165.889 109.867,165.889 C139.985,165.889 163.808,180.009 186.847,193.664 C209.711,207.215 233.354,221.229 263.062,221.229 C292.769,221.229 316.412,207.215 339.276,193.664 C362.314,180.009 386.137,165.889 416.256,165.889 L416.256,167.389 C386.548,167.389 362.905,181.402 340.041,194.954 C317.003,208.609 293.18,222.729 263.062,222.729" id="Fill-19" fill="#D0CFCA" mask="url(#mask-2)"></path>
        <path d="M263.062,212.667 C232.943,212.667 209.12,198.547 186.082,184.892 C163.217,171.34 139.574,157.327 109.867,157.327 C80.16,157.327 56.517,171.34 33.653,184.892 C21.4,192.154 8.729,199.664 -4.756,204.964 L-5.305,203.568 C8.068,198.312 20.686,190.833 32.888,183.601 C55.926,169.947 79.749,155.827 109.867,155.827 C139.985,155.827 163.808,169.947 186.847,183.602 C209.711,197.154 233.354,211.167 263.062,211.167 C292.769,211.167 316.412,197.154 339.276,183.602 C362.314,169.947 386.137,155.827 416.256,155.827 L416.256,157.327 C386.548,157.327 362.905,171.34 340.041,184.892 C317.003,198.547 293.18,212.667 263.062,212.667" id="Fill-20" fill="#D0CFCA" mask="url(#mask-2)"></path>
        <path d="M263.062,202.605 C232.943,202.605 209.12,188.485 186.082,174.831 C163.217,161.278 139.574,147.265 109.867,147.265 C80.16,147.265 56.517,161.278 33.653,174.83 C21.4,182.092 8.729,189.602 -4.756,194.903 L-5.305,193.507 C8.069,188.25 20.686,180.771 32.888,173.54 C55.926,159.885 79.749,145.765 109.867,145.765 C139.985,145.765 163.808,159.885 186.847,173.54 C209.711,187.092 233.354,201.105 263.062,201.105 C292.769,201.105 316.412,187.092 339.276,173.54 C362.314,159.885 386.137,145.765 416.256,145.765 L416.256,147.265 C386.548,147.265 362.905,161.278 340.041,174.831 C317.003,188.485 293.18,202.605 263.062,202.605" id="Fill-21" fill="#D0CFCA" mask="url(#mask-2)"></path>
        <path d="M263.062,192.543 C232.943,192.543 209.12,178.423 186.082,164.769 C163.217,151.217 139.574,137.204 109.867,137.204 C80.16,137.204 56.517,151.216 33.653,164.768 C21.4,172.03 8.729,179.54 -4.756,184.84 L-5.305,183.444 C8.068,178.188 20.686,170.709 32.888,163.478 C55.926,149.823 79.749,135.704 109.867,135.704 C139.985,135.704 163.808,149.823 186.847,163.478 C209.711,177.03 233.354,191.043 263.062,191.043 C292.769,191.043 316.412,177.03 339.276,163.478 C362.314,149.823 386.137,135.704 416.256,135.704 L416.256,137.204 C386.548,137.204 362.905,151.217 340.041,164.769 C317.003,178.423 293.18,192.543 263.062,192.543" id="Fill-22" fill="#D0CFCA" mask="url(#mask-2)"></path>
        <path d="M263.062,182.482 C232.943,182.482 209.12,168.362 186.082,154.707 C163.217,141.155 139.574,127.142 109.867,127.142 C80.16,127.142 56.517,141.155 33.653,154.707 C21.4,161.969 8.729,169.479 -4.756,174.779 L-5.305,173.383 C8.068,168.126 20.686,160.648 32.888,153.416 C55.926,139.762 79.749,125.642 109.867,125.642 C139.985,125.642 163.808,139.762 186.847,153.417 C209.711,166.969 233.354,180.982 263.062,180.982 C292.769,180.982 316.412,166.969 339.276,153.417 C362.314,139.762 386.137,125.642 416.256,125.642 L416.256,127.142 C386.548,127.142 362.905,141.155 340.041,154.707 C317.003,168.362 293.18,182.482 263.062,182.482" id="Fill-23" fill="#D0CFCA" mask="url(#mask-2)"></path>
        <path d="M263.062,172.42 C232.943,172.42 209.12,158.3 186.082,144.645 C163.217,131.093 139.574,117.08 109.867,117.08 C80.16,117.08 56.517,131.093 33.652,144.645 C21.399,151.907 8.729,159.417 -4.756,164.717 L-5.305,163.321 C8.068,158.065 20.686,150.586 32.887,143.354 C55.926,129.7 79.749,115.58 109.867,115.58 C139.985,115.58 163.808,129.7 186.847,143.355 C209.711,156.907 233.354,170.92 263.062,170.92 C292.769,170.92 316.412,156.907 339.276,143.355 C362.314,129.7 386.137,115.58 416.256,115.58 L416.256,117.08 C386.548,117.08 362.905,131.093 340.041,144.645 C317.003,158.3 293.18,172.42 263.062,172.42" id="Fill-24" fill="#D0CFCA" mask="url(#mask-2)"></path>
        <path d="M263.062,162.358 C232.943,162.358 209.12,148.238 186.082,134.583 C163.217,121.031 139.574,107.018 109.867,107.018 C80.16,107.018 56.517,121.031 33.652,134.583 C21.399,141.846 8.729,149.355 -4.756,154.656 L-5.305,153.26 C8.068,148.003 20.686,140.525 32.888,133.293 C55.926,119.638 79.749,105.518 109.867,105.518 C139.985,105.518 163.808,119.638 186.847,133.293 C209.711,146.845 233.354,160.858 263.062,160.858 C292.769,160.858 316.412,146.845 339.276,133.293 C362.314,119.638 386.137,105.518 416.256,105.518 L416.256,107.018 C386.548,107.018 362.905,121.031 340.041,134.583 C317.003,148.238 293.18,162.358 263.062,162.358" id="Fill-25" fill="#D0CFCA" mask="url(#mask-2)"></path>
        <path d="M263.062,152.296 C232.943,152.296 209.12,138.177 186.082,124.522 C163.217,110.97 139.574,96.957 109.867,96.957 C80.16,96.957 56.517,110.97 33.652,124.521 C21.399,131.783 8.729,139.293 -4.756,144.594 L-5.305,143.197 C8.068,137.941 20.686,130.463 32.888,123.231 C55.926,109.577 79.749,95.457 109.867,95.457 C139.985,95.457 163.808,109.577 186.847,123.231 C209.711,136.783 233.354,150.796 263.062,150.796 C292.769,150.796 316.412,136.783 339.276,123.231 C362.314,109.577 386.137,95.457 416.256,95.457 L416.256,96.957 C386.548,96.957 362.905,110.97 340.041,124.522 C317.003,138.177 293.18,152.296 263.062,152.296" id="Fill-26" fill="#D0CFCA" mask="url(#mask-2)"></path>
        <path d="M263.062,142.235 C232.943,142.235 209.12,128.115 186.082,114.46 C163.217,100.908 139.574,86.895 109.867,86.895 C80.16,86.895 56.517,100.908 33.653,114.459 C21.4,121.722 8.729,129.231 -4.756,134.532 L-5.305,133.136 C8.068,127.879 20.686,120.401 32.888,113.169 C55.926,99.515 79.749,85.395 109.867,85.395 C139.985,85.395 163.808,99.515 186.847,113.17 C209.711,126.722 233.354,140.735 263.062,140.735 C292.769,140.735 316.412,126.722 339.276,113.17 C362.314,99.515 386.137,85.395 416.256,85.395 L416.256,86.895 C386.548,86.895 362.905,100.908 340.041,114.46 C317.003,128.115 293.18,142.235 263.062,142.235" id="Fill-27" fill="#D0CFCA" mask="url(#mask-2)"></path>
        <path d="M263.062,132.173 C232.943,132.173 209.12,118.053 186.082,104.398 C163.217,90.846 139.574,76.833 109.867,76.833 C80.16,76.833 56.517,90.846 33.652,104.398 C21.399,111.66 8.729,119.169 -4.756,124.47 L-5.305,123.074 C8.068,117.818 20.686,110.339 32.887,103.107 C55.926,89.453 79.749,75.333 109.867,75.333 C139.985,75.333 163.808,89.453 186.847,103.108 C209.711,116.66 233.354,130.673 263.062,130.673 C292.769,130.673 316.412,116.66 339.276,103.108 C362.314,89.453 386.137,75.333 416.256,75.333 L416.256,76.833 C386.548,76.833 362.905,90.846 340.041,104.398 C317.003,118.053 293.18,132.173 263.062,132.173" id="Fill-28" fill="#D0CFCA" mask="url(#mask-2)"></path>
        <path d="M263.062,122.111 C232.943,122.111 209.12,107.992 186.082,94.336 C163.217,80.785 139.574,66.771 109.867,66.771 C80.16,66.771 56.518,80.784 33.654,94.335 C21.4,101.598 8.73,109.107 -4.756,114.408 L-5.305,113.012 C8.069,107.755 20.687,100.277 32.889,93.045 C55.927,79.391 79.749,65.271 109.867,65.271 C139.985,65.271 163.808,79.391 186.847,93.046 C209.711,106.598 233.354,120.611 263.062,120.611 C292.769,120.611 316.412,106.598 339.276,93.046 C362.314,79.391 386.137,65.271 416.256,65.271 L416.256,66.771 C386.548,66.771 362.905,80.785 340.041,94.336 C317.003,107.992 293.18,122.111 263.062,122.111" id="Fill-29" fill="#D0CFCA" mask="url(#mask-2)"></path>
        <path d="M263.062,112.049 C232.943,112.049 209.12,97.93 186.082,84.275 C163.217,70.723 139.574,56.71 109.867,56.71 C80.159,56.71 56.517,70.723 33.652,84.275 C21.399,91.537 8.729,99.046 -4.756,104.347 L-5.305,102.951 C8.068,97.694 20.686,90.216 32.887,82.984 C55.925,69.33 79.748,55.21 109.867,55.21 C139.985,55.21 163.808,69.33 186.847,82.984 C209.711,96.536 233.354,110.549 263.062,110.549 C292.769,110.549 316.412,96.536 339.276,82.984 C362.314,69.33 386.137,55.21 416.256,55.21 L416.256,56.71 C386.548,56.71 362.905,70.723 340.041,84.275 C317.003,97.93 293.18,112.049 263.062,112.049" id="Fill-30" fill="#D0CFCA" mask="url(#mask-2)"></path>
        <path d="M263.062,101.987 C232.943,101.987 209.12,87.868 186.082,74.213 C163.217,60.661 139.574,46.648 109.867,46.648 C80.16,46.648 56.517,60.661 33.653,74.212 C21.4,81.475 8.729,88.984 -4.756,94.285 L-5.305,92.889 C8.068,87.632 20.686,80.154 32.888,72.922 C55.926,59.268 79.749,45.148 109.867,45.148 C139.985,45.148 163.808,59.268 186.847,72.922 C209.711,86.474 233.354,100.487 263.062,100.487 C292.769,100.487 316.412,86.474 339.276,72.922 C362.314,59.268 386.137,45.148 416.256,45.148 L416.256,46.648 C386.548,46.648 362.905,60.661 340.041,74.213 C317.003,87.868 293.18,101.987 263.062,101.987" id="Fill-31" fill="#D0CFCA" mask="url(#mask-2)"></path>
        <path d="M263.062,91.926 C232.943,91.926 209.12,77.806 186.082,64.151 C163.217,50.599 139.574,36.586 109.867,36.586 C80.16,36.586 56.517,50.599 33.653,64.15 C21.4,71.413 8.729,78.922 -4.756,84.223 L-5.305,82.827 C8.069,77.571 20.686,70.092 32.888,62.86 C55.926,49.206 79.749,35.086 109.867,35.086 C139.985,35.086 163.808,49.206 186.847,62.861 C209.711,76.413 233.354,90.426 263.062,90.426 C292.769,90.426 316.412,76.413 339.276,62.861 C362.314,49.206 386.137,35.086 416.256,35.086 L416.256,36.586 C386.548,36.586 362.905,50.599 340.041,64.151 C317.003,77.806 293.18,91.926 263.062,91.926" id="Fill-32" fill="#D0CFCA" mask="url(#mask-2)"></path>
        <path d="M263.062,81.864 C232.943,81.864 209.12,67.744 186.082,54.089 C163.217,40.538 139.574,26.524 109.867,26.524 C80.16,26.524 56.517,40.537 33.653,54.089 C21.4,61.351 8.729,68.861 -4.756,74.162 L-5.305,72.766 C8.068,67.509 20.686,60.03 32.888,52.798 C55.926,39.144 79.749,25.024 109.867,25.024 C139.985,25.024 163.808,39.144 186.847,52.799 C209.711,66.351 233.354,80.364 263.062,80.364 C292.769,80.364 316.412,66.351 339.276,52.799 C362.314,39.144 386.137,25.024 416.256,25.024 L416.256,26.524 C386.548,26.524 362.905,40.538 340.041,54.089 C317.003,67.744 293.18,81.864 263.062,81.864" id="Fill-33" fill="#D0CFCA" mask="url(#mask-2)"></path>
        <path d="M263.062,71.802 C232.943,71.802 209.12,57.683 186.082,44.027 C163.217,30.476 139.574,16.462 109.867,16.462 C80.16,16.462 56.517,30.476 33.652,44.027 C21.399,51.29 8.729,58.799 -4.756,64.1 L-5.305,62.704 C8.068,57.447 20.686,49.969 32.887,42.737 C55.926,29.082 79.749,14.962 109.867,14.962 C139.985,14.962 163.808,29.082 186.847,42.737 C209.711,56.289 233.354,70.302 263.062,70.302 C292.769,70.302 316.412,56.289 339.276,42.737 C362.314,29.082 386.137,14.962 416.256,14.962 L416.256,16.462 C386.548,16.462 362.905,30.476 340.041,44.027 C317.003,57.683 293.18,71.802 263.062,71.802" id="Fill-34" fill="#D0CFCA" mask="url(#mask-2)"></path>
        <path d="M263.062,61.74 C232.943,61.74 209.12,47.621 186.082,33.966 C163.217,20.414 139.574,6.401 109.867,6.401 C80.16,6.401 56.517,20.414 33.653,33.965 C21.4,41.227 8.729,48.737 -4.756,54.038 L-5.305,52.642 C8.068,47.385 20.686,39.907 32.888,32.675 C55.926,19.02 79.749,4.901 109.867,4.901 C139.985,4.901 163.808,19.02 186.847,32.675 C209.711,46.227 233.354,60.24 263.062,60.24 C292.769,60.24 316.412,46.227 339.276,32.675 C362.314,19.02 386.137,4.901 416.256,4.901 L416.256,6.401 C386.548,6.401 362.905,20.414 340.041,33.966 C317.003,47.621 293.18,61.74 263.062,61.74" id="Fill-35" fill="#D0CFCA" mask="url(#mask-2)"></path>
        <path d="M263.062,51.679 C232.943,51.679 209.12,37.559 186.082,23.904 C163.217,10.352 139.574,-3.661 109.867,-3.661 C80.16,-3.661 56.517,10.352 33.653,23.903 C21.4,31.166 8.729,38.675 -4.756,43.976 L-5.305,42.58 C8.069,37.324 20.686,29.845 32.888,22.613 C55.926,8.958 79.749,-5.161 109.867,-5.161 C139.985,-5.161 163.808,8.959 186.847,22.614 C209.711,36.166 233.354,50.179 263.062,50.179 C292.769,50.179 316.412,36.166 339.276,22.614 C362.314,8.959 386.137,-5.161 416.256,-5.161 L416.256,-3.661 C386.548,-3.661 362.905,10.352 340.041,23.904 C317.003,37.559 293.18,51.679 263.062,51.679" id="Fill-36" fill="#D0CFCA" mask="url(#mask-2)"></path>
        <path d="M263.062,41.617 C232.943,41.617 209.12,27.498 186.082,13.842 C163.217,0.29 139.574,-13.723 109.867,-13.723 C80.16,-13.723 56.517,0.29 33.653,13.842 C21.4,21.104 8.729,28.614 -4.756,33.915 L-5.305,32.519 C8.068,27.262 20.686,19.783 32.888,12.551 C55.926,-1.103 79.749,-15.223 109.867,-15.223 C139.985,-15.223 163.808,-1.103 186.847,12.552 C209.711,26.104 233.354,40.117 263.062,40.117 C292.769,40.117 316.412,26.104 339.276,12.552 C362.314,-1.103 386.137,-15.223 416.256,-15.223 L416.256,-13.723 C386.548,-13.723 362.905,0.29 340.041,13.842 C317.003,27.498 293.18,41.617 263.062,41.617" id="Fill-37" fill="#D0CFCA" mask="url(#mask-2)"></path>
        <path d="M263.062,31.555 C232.942,31.555 209.118,17.435 186.079,3.779 C173.797,-3.5 161.099,-11.026 147.626,-16.29 L148.172,-17.687 C161.758,-12.379 174.511,-4.821 186.843,2.489 C209.709,16.042 233.353,30.055 263.062,30.055 C292.769,30.055 316.412,16.042 339.276,2.49 C351.61,-4.82 364.363,-12.379 377.951,-17.687 L378.497,-16.29 C365.023,-11.026 352.323,-3.499 340.041,3.78 C317.003,17.435 293.18,31.555 263.062,31.555" id="Fill-38" fill="#D0CFCA" mask="url(#mask-2)"></path>
        <path d="M-4.756,23.853 L-5.305,22.456 C8.068,17.2 20.686,9.722 32.888,2.489 C45.221,-4.82 57.975,-12.379 71.561,-17.687 L72.106,-16.29 C58.634,-11.027 45.934,-3.5 33.653,3.78 C21.399,11.042 8.729,18.552 -4.756,23.853" id="Fill-39" fill="#D0CFCA" mask="url(#mask-2)"></path>
        <path d="M263.062,21.494 C232.942,21.494 209.119,7.374 186.08,-6.282 C180.406,-9.645 174.539,-13.123 168.675,-16.33 L169.395,-17.647 C175.282,-14.426 181.16,-10.942 186.845,-7.572 C209.71,5.98 233.354,19.994 263.062,19.994 C292.769,19.994 316.412,5.98 339.277,-7.572 C344.962,-10.941 350.841,-14.426 356.729,-17.647 L357.448,-16.33 C351.583,-13.123 345.716,-9.645 340.042,-6.282 C317.003,7.374 293.18,21.494 263.062,21.494" id="Fill-40" fill="#D0CFCA" mask="url(#mask-2)"></path>
        <path d="M-4.756,13.791 L-5.305,12.394 C8.067,7.138 20.684,-0.339 32.884,-7.57 C38.57,-10.94 44.45,-14.425 50.339,-17.647 L51.059,-16.33 C45.193,-13.122 39.324,-9.644 33.649,-6.28 C21.398,0.981 8.729,8.49 -4.756,13.791" id="Fill-41" fill="#D0CFCA" mask="url(#mask-2)"></path>
        <path d="M263.062,11.432 C232.944,11.432 209.121,-2.688 186.082,-16.343 L186.846,-17.633 C209.711,-4.082 233.355,9.932 263.062,9.932 C292.767,9.932 316.409,-4.08 339.272,-17.631 L340.042,-16.343 C317,-2.687 293.178,11.432 263.062,11.432" id="Fill-42" fill="#D0CFCA" mask="url(#mask-2)"></path>
        <path d="M-4.756,3.729 L-5.305,2.333 C8.061,-2.921 20.672,-10.395 32.868,-17.622 L33.651,-16.343 C21.386,-9.074 8.722,-1.569 -4.756,3.729" id="Fill-43" fill="#D0CFCA" mask="url(#mask-2)"></path>
        <path d="M263.062,1.37 C239.121,1.37 219.535,-7.578 203.534,-16.33 L204.253,-17.647 C220.088,-8.985 239.458,-0.13 263.062,-0.13 C286.665,-0.13 306.035,-8.985 321.871,-17.647 L322.59,-16.33 C306.589,-7.578 287.002,1.37 263.062,1.37" id="Fill-44" fill="#D0CFCA" mask="url(#mask-2)"></path>
    </g>
</svg>